<svg width="1280" height="666" viewBox="0 0 1280 666" fill="none" xmlns="http://www.w3.org/2000/svg">
<path opacity="0.1" fill-rule="evenodd" clip-rule="evenodd" d="M1286.16 -72.4525L1286.17 -72.4639L1286.56 -72.1619L1286.56 -72.1552L1286.56 -72.1551L1286.56 -72.155L1286.57 -72.1533L1287.06 -72.0929C1246.82 247.778 1195.76 375.598 1152.36 451.737C1142.09 469.739 1132.27 484.838 1123.12 498.894C1093.58 544.293 1071.12 578.804 1063.88 665.042L1062.89 664.958C1070.15 578.455 1092.75 543.728 1122.32 498.278C1131.46 484.237 1141.27 469.172 1151.49 451.241C1194.46 375.874 1245.02 249.638 1285.1 -64.5425C1202.55 249.889 1098.35 376.329 1009.68 451.87C988.584 469.846 968.367 484.937 949.548 498.983C948.449 499.804 947.354 500.622 946.264 501.436C926.515 516.185 908.373 529.88 892.412 544.727C860.514 574.398 837.324 608.666 827.569 665.085L826.584 664.915C836.381 608.252 859.695 573.794 891.731 543.994C907.738 529.106 925.922 515.38 945.665 500.634L946.696 499.865L948.942 498.188L948.943 498.187C967.766 484.137 987.96 469.064 1009.04 451.108C1097.4 375.83 1201.33 249.831 1283.78 -63.4732C1162.96 250.245 1010.56 376.485 880.909 451.921C850.018 469.894 820.421 484.982 792.864 499.029L792.86 499.031L790.219 500.377L788.056 501.481C759.138 516.229 732.564 529.93 709.182 544.783C662.435 574.478 628.499 608.749 614.227 665.123L613.258 664.878C627.615 608.169 661.774 573.713 708.646 543.938C732.074 529.056 758.69 515.335 787.601 500.59C789.195 499.777 790.796 498.961 792.404 498.141C819.964 484.092 849.54 469.016 880.406 451.057C1009.71 375.823 1161.74 249.975 1282.4 -62.6775C1125.09 250.506 926.792 376.589 758.101 451.946C717.871 469.917 679.326 485.003 643.434 499.051L643.364 499.078C641.292 499.889 639.229 500.696 637.175 501.501C599.512 516.249 564.892 529.953 534.43 544.81C473.505 574.525 429.311 608.808 410.731 665.157L409.782 664.844C428.489 608.109 472.984 573.666 533.992 543.911C564.496 529.033 599.154 515.316 636.81 500.57C638.885 499.757 640.97 498.941 643.064 498.122C678.96 484.072 717.485 468.994 757.693 451.033C925.179 376.214 1121.87 251.366 1278.58 -57.3325C1097.61 251.965 870.363 377.036 676.896 451.955C630.493 469.925 586.032 485.01 544.628 499.058L544.625 499.059C542.208 499.879 539.802 500.695 537.406 501.509C493.961 516.257 454.02 529.962 418.876 544.821C348.573 574.545 297.589 608.838 276.159 665.178L275.225 664.822C296.808 608.079 348.132 573.646 418.486 543.9C453.67 529.024 493.645 515.308 537.084 500.562L538.697 500.014L541.053 499.215L544.018 498.209L544.298 498.114C585.706 484.065 630.15 468.985 676.535 451.023C869.114 376.447 1095.14 252.175 1275.62 -54.2554C1074.41 252.81 822.303 377.295 607.579 451.961C555.902 469.931 506.39 485.016 460.279 499.064L456.803 500.123L452.241 501.513C403.859 516.262 359.377 529.967 320.235 544.828C241.928 574.558 185.144 608.859 161.28 665.195L160.359 664.805C184.397 608.058 241.546 573.633 319.88 543.893C359.059 529.019 403.573 515.303 451.949 500.557C454.616 499.744 457.295 498.928 459.985 498.108L459.987 498.108L459.998 498.104L460.009 498.101C506.115 484.054 555.602 468.977 607.25 451.017C819.905 377.07 1069.17 254.267 1269.29 -46.4911C1054.34 254.923 786.484 377.933 558.069 451.965C502.627 469.934 449.507 485.018 400.036 499.066L396.06 500.195L391.411 501.516C339.503 516.264 291.777 529.97 249.78 544.832C165.756 574.565 104.827 608.872 79.2243 665.207L78.3139 664.793C104.104 608.046 165.412 573.626 249.446 543.889C291.478 529.015 339.235 515.301 391.137 500.554C392.852 500.067 394.57 499.579 396.293 499.09L399.084 498.297L399.761 498.105C449.234 484.056 502.338 468.977 557.76 451.013C782.693 378.11 1045.79 257.725 1258.92 -33.8312C1035.69 258.391 759.992 378.981 524.402 451.967C466.4 469.936 410.827 485.02 359.071 499.068L358.862 499.125L353.957 500.456L350.047 501.518C295.741 516.266 245.809 529.972 201.871 544.834C113.96 574.569 50.211 608.879 23.4258 665.215L22.5226 664.786C49.5036 608.038 113.64 573.622 201.55 543.887C245.522 529.014 295.484 515.299 349.785 500.553C352.526 499.808 355.279 499.061 358.043 498.31L358.807 498.103C410.565 484.055 466.122 468.975 524.106 451.011C757.894 378.584 1031.09 259.293 1253.28 -28.1323C1022.16 259.967 737.865 379.46 494.696 451.968C434.44 469.936 376.706 485.019 322.937 499.066L322.933 499.067L322.926 499.069L322.587 499.157C319.561 499.948 316.549 500.735 313.549 501.519C257.128 516.267 205.249 529.974 159.597 544.836C68.2575 574.572 2.02015 608.885 -25.809 665.222L-26.7055 664.779C1.32634 608.032 67.9568 573.619 159.288 543.885C204.972 529.012 256.88 515.298 313.296 500.551C316.406 499.738 319.529 498.922 322.666 498.103C376.442 484.054 434.165 468.974 494.41 451.01C733.99 379.572 1013.4 262.542 1242.5 -16.4412C1006.24 263.219 717.979 380.45 470.932 451.969C408.865 469.938 349.396 485.022 294.01 499.07C290.776 499.89 287.557 500.706 284.352 501.52C226.238 516.268 172.802 529.975 125.781 544.837C31.6973 574.575 -36.531 608.89 -65.1954 665.227L-66.0867 664.773C-37.2142 608.028 31.4113 573.616 125.479 543.884C172.533 529.011 225.997 515.297 284.106 500.55C287.145 499.779 290.198 499.005 293.263 498.227L293.758 498.102L293.763 498.1C349.151 484.052 408.604 468.972 470.654 451.009C717.24 379.623 1004.79 262.713 1240.66 -15.8187C997.625 263.395 701.22 380.505 447.168 451.97C383.293 469.939 322.093 485.022 265.094 499.07C261.766 499.89 258.453 500.707 255.154 501.521C195.348 516.268 140.355 529.976 91.963 544.838C43.5691 559.702 1.80199 575.713 -31.5575 595.06C-64.915 614.407 -89.8378 637.072 -104.583 665.232L-105.469 664.768C-90.6075 636.387 -65.5172 613.6 -32.0592 594.195C1.39678 574.792 43.2475 558.754 91.6694 543.883C140.093 529.01 195.114 515.296 254.915 500.55C258.21 499.737 261.52 498.921 264.845 498.102L264.848 498.101C321.85 484.052 383.037 468.972 446.898 451.008C717.226 374.963 1035.39 247.259 1286.15 -72.4411L1286.16 -72.4453L1286.16 -72.4527L1286.16 -72.4525Z" fill="#232323"/>
</svg>
