<svg width="602" height="133" viewBox="0 0 602 133" fill="none" xmlns="http://www.w3.org/2000/svg">
<path d="M71.1293 0.252545C38.2374 0.627919 0.786219 21.4615 0.460556 40.2304C0.134894 49.6149 0.134894 59.1871 0.134894 68.5716C0.134894 70.4485 0.460556 72.3253 0.786219 74.2022C7.95079 85.839 37.9117 87.1528 35.6321 96.9127C33.3525 106.86 5.67116 108.174 0.134894 119.623C-0.190769 121.312 0.134894 122.626 0.460556 123.94C1.76321 130.134 8.27646 132.574 21.303 132.011C73.7346 130.321 126.166 131.26 178.598 132.949C191.624 133.324 201.72 131.448 203.023 124.878C203.023 123.565 203.023 122.063 202.697 120.374C202.371 109.3 230.995 101.825 214.061 99.3846C162.606 88.1232 84.8071 113.054 60.3825 71.7623L60.0568 51.8672C59.4055 32.9105 59.0798 32.7228 91.9717 32.9105C120.63 32.9105 149.288 33.849 177.947 33.4736C204.977 33.2859 202.046 21.4615 203.023 11.1385C204.325 -0.873589 190.647 0.0648574 176.97 0.0648574C160.035 0.252545 142.775 0.252545 125.515 0.252545C107.278 0.252545 89.3664 0.0648574 71.1293 0.252545Z" fill="#232323"/>
<path d="M257.281 100.291C248.162 99.5404 235.248 105.962 233.056 111.077C232.289 112.866 231.554 114.743 231.879 116.995C232.205 127.694 236.113 133.512 257.932 132.761C276.169 132.198 291.801 132.949 289.847 117.746C289.847 116.057 289.522 114.368 289.196 112.866C289.196 111.177 288.87 109.676 288.219 108.362C288.87 100.666 274.867 100.103 257.281 100.291Z" fill="#232323"/>
<path d="M488.155 73.8269C492.063 73.8269 494.994 73.6392 497.6 72.8884C500.205 72.1377 502.485 70.6361 503.787 68.1962C505.416 65.7562 506.393 62.3778 507.044 57.6856C507.37 54.3072 508.346 51.3041 508.998 48.6765C508.998 36.852 507.37 24.8399 508.347 13.0154C509.324 2.50482 503.136 -0.498215 486.201 0.0648574C468.29 0.627919 450.053 0.252545 432.141 0.252545C414.881 0.252545 397.621 0.0648574 380.361 0.252545C348.772 0.252545 305.784 24.4645 305.459 42.6704C305.133 51.6795 304.807 60.8763 304.807 69.8854C304.807 71.7623 304.482 73.6392 304.482 75.3284C304.156 77.2053 304.156 80.9591 308.39 83.399C317.183 90.9066 338.351 93.3466 334.117 101.98C329.883 110.614 306.436 113.054 304.482 123.752C304.807 125.254 305.459 126.38 306.436 127.506C310.344 131.635 318.16 133.324 329.558 132.949C352.354 132.574 360.821 132.386 364.078 127.318C364.729 126.38 365.055 125.066 365.381 123.565C364.078 110.614 400.552 110.614 398.273 96.9127C396.319 89.5928 368.312 84.7129 374.825 82.2729C406.74 72.3254 464.708 84.7129 477.409 104.42C481.642 108.174 481.642 121.688 491.086 126.38C492.715 127.318 494.343 128.632 496.297 129.571C498.251 130.509 500.205 131.072 502.81 130.509C505.741 129.946 506.718 128.82 507.044 127.318C507.37 126.005 507.044 124.315 507.695 123.002C513.883 111.74 541.564 106.86 537.331 96.9127C533.097 84.7129 500.856 84.7129 484.573 75.1407C484.573 74.3899 485.55 73.8269 488.155 73.8269ZM433.77 45.1104C424.977 45.1104 415.858 45.1104 406.74 45.1104C396.97 45.1104 387.2 45.1104 377.43 45.1104C370.917 44.9227 366.683 43.6088 366.358 39.292C366.032 35.1628 369.289 33.0982 376.128 33.0982C395.667 32.9105 415.207 32.9105 435.072 33.0982C441.26 33.0982 445.819 34.412 446.145 38.7289C446.471 43.7965 441.586 45.1104 433.77 45.1104Z" fill="#232323"/>
<path d="M569.268 100.291C560.15 99.5404 544.844 108.925 544.192 110.802C543.867 112.679 543.541 114.743 543.867 116.995C544.192 127.694 548.1 133.512 569.92 132.761C588.157 132.198 603.789 132.949 601.835 117.746C601.835 116.057 601.509 114.368 601.183 112.866C601.183 111.177 600.858 109.676 600.206 108.362C600.858 100.666 586.854 100.103 569.268 100.291Z" fill="#232323"/>
</svg>
