<svg width="546" height="210" viewBox="0 0 546 210" fill="none" xmlns="http://www.w3.org/2000/svg">
<path d="M515.968 157.724C502.615 155.816 491.974 172.356 492.944 183.994C493.239 200.819 496.781 209.969 516.558 208.788C533.087 207.903 547.256 209.083 545.485 185.174C545.485 182.518 545.189 179.861 544.894 177.5C544.894 174.843 544.599 172.482 544.009 170.416C544.599 158.314 531.907 157.428 515.968 157.724Z" fill="#232323"/>
<path d="M442.448 116.104C445.99 116.104 448.647 115.809 451.008 114.628C453.369 113.448 455.435 111.086 456.616 107.249C458.092 103.412 458.978 98.0987 459.568 90.7194C460.868 67.3149 459.631 43.9366 460.749 20.4688C461.634 3.93922 456.026 -0.78352 440.677 0.101998C424.443 0.987499 407.913 0.397165 391.679 0.397165C376.035 0.397165 360.39 0.101998 344.746 0.397165C316.115 0.397165 277.152 38.4742 276.857 67.1057C276.562 81.2739 276.267 95.7373 276.267 109.905C276.267 112.857 275.972 115.809 275.972 118.465C275.677 121.417 275.677 127.321 279.514 131.158C287.483 142.965 306.669 146.802 302.832 160.38C298.995 173.958 277.743 177.795 275.972 194.619C276.267 196.981 276.857 198.752 277.743 200.523C281.285 207.017 288.369 209.673 298.7 209.083C319.362 208.492 327.036 208.197 329.988 200.228C330.578 198.752 330.873 196.686 331.169 194.324C329.988 173.958 363.047 173.958 360.981 152.41C359.21 140.898 333.825 133.224 339.729 129.387C368.655 113.743 421.196 133.224 432.707 164.217C436.545 170.12 436.545 191.373 445.104 198.752C446.58 200.228 448.056 202.294 449.827 203.77C451.598 205.246 453.369 206.131 455.731 205.246C458.387 204.36 459.273 202.589 459.568 200.228C459.863 198.162 459.568 195.505 460.158 193.439C465.766 175.729 490.856 168.054 487.019 152.41C483.182 133.224 453.96 133.224 439.201 118.17C439.201 116.99 440.087 116.104 442.448 116.104ZM393.154 70.943C385.185 70.943 376.92 70.943 368.655 70.943C359.8 70.943 350.945 70.943 342.09 70.943C336.187 70.6478 332.349 68.5816 332.054 61.7927C331.759 55.2989 334.711 52.052 340.909 52.052C358.619 51.7569 376.33 51.7569 394.335 52.052C399.943 52.052 404.076 54.1182 404.371 60.9072C404.666 68.8768 400.239 70.943 393.154 70.943Z" fill="#232323"/>
<path d="M233.192 157.723C216 155.5 209.198 172.355 210.168 183.993C210.463 200.818 214.005 209.968 233.782 208.787C250.311 207.902 264.48 209.082 262.709 185.174C262.709 162.037 254.453 162.274 233.192 157.723Z" fill="#232323"/>
<path d="M64.4695 0.396337C34.6572 0.986671 0.712605 33.7506 0.417435 63.2677C0.122264 78.0262 0.122264 93.0799 0.122264 107.838C0.122264 110.79 0.417435 113.742 0.712605 116.694C7.20636 134.994 34.3621 137.06 32.2959 152.409C30.2297 168.053 5.14017 170.119 0.122264 188.125C-0.172907 190.781 0.122264 192.848 0.417435 194.914C1.59812 204.654 7.50153 208.492 19.3084 207.606C66.8308 204.95 114.353 206.425 161.876 209.082C173.683 209.672 182.833 206.721 184.014 196.39C184.014 194.323 184.014 191.962 183.718 189.306C183.423 171.891 218.253 160.379 202.905 156.542C156.268 138.831 76.8667 177.794 54.7289 112.856L54.4337 81.5683C53.8433 51.756 53.5482 51.4609 83.3604 51.756C109.335 51.756 135.31 53.2319 161.285 52.6415C185.785 52.3464 183.128 33.7506 184.014 17.5162C185.194 -1.37468 172.797 0.10117 160.4 0.10117C145.051 0.396337 129.407 0.396337 113.763 0.396337C97.2334 0.396337 80.999 0.10117 64.4695 0.396337Z" fill="#232323"/>
</svg>
